PathFileType	4	(X/Y/Z)	/Users/itak/Documents/Research/Walk-IL/dataset/trc/00536_00009.trc
DataRate	CameraRate	NumFrames	NumMarkers	Units	OrigDataRate	OrigDataStartFrame	OrigNumFrames
100.000000	100.000000	4	53	mm	100.000000	388	776
Frame#	Time	RPSI			LPSI			L3			STRN			T10			C7			CLAV			RBAK			LBAK			LSHO			LUPA			LAEL			LAOL			LWTS			LWPS			LFRA			LHPS			LHTS			RSHO			RUPA			RAEL			RAOL			RWTS			RWPS			RFRA			RIFD			RHTS			RHPS			RBHD			LFHD			RFHD			LBHD			LHIP			RHIP			RASI			LASI			LKNE			LTHI			LANK			LTIP			LTOE			LMT1			LMT5			LHEE			RKNE			RTHI			RANK			RTIP			RTOE			RMT1			RMT5			RHEE			LIFD			
		X1	Y1	Z1	X2	Y2	Z2	X3	Y3	Z3	X4	Y4	Z4	X5	Y5	Z5	X6	Y6	Z6	X7	Y7	Z7	X8	Y8	Z8	X9	Y9	Z9	X10	Y10	Z10	X11	Y11	Z11	X12	Y12	Z12	X13	Y13	Z13	X14	Y14	Z14	X15	Y15	Z15	X16	Y16	Z16	X17	Y17	Z17	X18	Y18	Z18	X19	Y19	Z19	X20	Y20	Z20	X21	Y21	Z21	X22	Y22	Z22	X23	Y23	Z23	X24	Y24	Z24	X25	Y25	Z25	X26	Y26	Z26	X27	Y27	Z27	X28	Y28	Z28	X29	Y29	Z29	X30	Y30	Z30	X31	Y31	Z31	X32	Y32	Z32	X33	Y33	Z33	X34	Y34	Z34	X35	Y35	Z35	X36	Y36	Z36	X37	Y37	Z37	X38	Y38	Z38	X39	Y39	Z39	X40	Y40	Z40	X41	Y41	Z41	X42	Y42	Z42	X43	Y43	Z43	X44	Y44	Z44	X45	Y45	Z45	X46	Y46	Z46	X47	Y47	Z47	X48	Y48	Z48	X49	Y49	Z49	X50	Y50	Z50	X51	Y51	Z51	X52	Y52	Z52	X53	Y53	Z53	

389	3.88	-453.7399291992188	1011.641418457031	475.4171752929688	-453.3402099609375	1017.176696777344	341.9739685058594	-449.8848266601562	1107.55224609375	406.778564453125	-220.2174224853516	1293.307373046875	391.8021850585938	-461.5760192871094	1233.148559570312	406.2593078613281	-411.0737915039062	1506.52734375	416.2852478027344	-238.7472229003906	1404.477172851562	393.6854553222656	-475.3458557128906	1381.8154296875	508.6314086914062	-451.08935546875	1453.978393554688	325.8152770996094	-356.2015075683594	1477.88232421875	238.7010040283203	-364.7587280273438	1353.136596679688	156.1060028076172	-328.7657470703125	1134.234375	126.6114501953125	-413.945068359375	1116.03857421875	179.1539764404297	-202.2554168701172	907.0734252929688	165.1057891845703	-246.7271270751953	878.7714233398438	94.83035278320312	-295.6429443359375	1052.103759765625	117.6880569458008	-228.2060089111328	821.1595458984375	101.0517044067383	-175.6677398681641	833.501953125	142.7461395263672	-338.6237182617188	1466.524536132812	566.5234985351562	-352.4067687988281	1402.296508789062	635.48095703125	-365.4571228027344	1114.314819335938	683.4962158203125	-420.811767578125	1097.380981445312	657.9129028320312	-233.6181182861328	893.3682250976562	644.3240356445312	-275.8948669433594	873.7952880859375	711.0681762695312	-355.0538330078125	1058.7060546875	691.571044921875	-220.3318328857422	720.2942504882812	649.2011108398438	-203.4579315185547	802.668701171875	658.8087158203125	-257.1493530273438	798.9607543945312	709.3616333007812	-327.1160583496094	1686.162231445312	478.7022399902344	-183.2991027832031	1708.371215820312	330.1047973632812	-188.0265502929688	1706.211303710938	474.3079528808594	-314.5505065917969	1687.00390625	313.3467712402344	-326.8622741699219	940.8167114257812	206.8717041015625	-331.0908203125	934.8705444335938	593.4361572265625	-243.263671875	965.8322143554688	538.4898681640625	-246.4161071777344	967.1612548828125	262.2670288085938	-255.3354644775391	499.4535217285156	282.3313598632812	-272.6865539550781	663.2927856445312	238.3442230224609	-304.2312622070312	31.08588981628418	308.9742126464844	-297.2812194824219	250.3660583496094	290.7371215820312	-95.02338409423828	39.02866363525391	373.9269104003906	-168.8427886962891	43.9521484375	405.4912414550781	-182.3422546386719	34.90250778198242	298.4828491210938	-373.5283203125	35.65414428710938	362.5245056152344	-317.8195190429688	490.4626159667969	573.23291015625	-295.7104187011719	781.4164428710938	591.67919921875	-695.3760375976562	186.6657104492188	552.8141479492188	-403.9520263671875	368.7357177734375	560.6188354492188	-552.2863159179688	32.94922256469727	498.0616149902344	-595.3494873046875	81.44138336181641	461.2789916992188	-615.5304565429688	82.28585052490234	562.9063720703125	-731.1393432617188	230.8859100341797	498.4336853027344	-178.1920928955078	737.84375	155.1995391845703	
390	3.89	-449.2717895507812	1011.518615722656	474.4590759277344	-448.5064697265625	1017.219177246094	341.0022583007812	-445.3788757324219	1107.631713867188	405.7003173828125	-215.7203674316406	1293.625854492188	391.2777099609375	-457.0668334960938	1233.210083007812	405.1165771484375	-406.8570251464844	1506.645874023438	415.2047729492188	-234.3525695800781	1404.804565429688	393.1347045898438	-471.2568969726562	1381.896362304688	507.4141540527344	-446.578369140625	1454.016357421875	324.6261291503906	-351.4063415527344	1478.012451171875	237.8001251220703	-359.1664428710938	1353.282348632812	155.2077026367188	-321.2758178710938	1134.73046875	125.4968338012695	-406.7612915039062	1115.832885742188	177.3215026855469	-193.2980041503906	908.504150390625	164.5531921386719	-236.9425506591797	880.04736328125	93.847900390625	-287.4797668457031	1052.88720703125	116.6915283203125	-218.023193359375	822.5772705078125	100.06396484375	-165.8234558105469	835.187744140625	142.1002655029297	-334.7802734375	1466.76904296875	565.674072265625	-348.5955810546875	1402.4833984375	634.5785522460938	-361.1700744628906	1114.439086914062	682.3892822265625	-416.3349304199219	1097.36767578125	656.6122436523438	-228.5812683105469	893.847412109375	643.3526000976562	-270.9845886230469	874.1197509765625	710.0153198242188	-350.5789489746094	1058.865600585938	690.4423217773438	-215.0061340332031	720.8038940429688	648.1005249023438	-198.2510833740234	803.2036743164062	657.8860473632812	-251.9719848632812	799.1439208984375	708.2346801757812	-322.8551025390625	1686.33984375	477.9771118164062	-179.1507415771484	1708.739135742188	329.32470703125	-183.8123474121094	1706.58203125	473.5143127441406	-310.4036254882812	1687.194213867188	312.6375122070312	-321.9800415039062	940.8181762695312	206.1237640380859	-326.3591918945312	935.0526733398438	592.6574096679688	-238.7231597900391	966.3167724609375	537.7135009765625	-241.5483551025391	967.214111328125	261.5688781738281	-252.9155731201172	499.2229919433594	282.1655883789062	-269.01220703125	663.1563110351562	238.1963653564453	-304.1432189941406	31.19020462036133	309.1653747558594	-296.0879516601562	250.3595428466797	290.6875915527344	-94.94047546386719	38.89791107177734	374.0353088378906	-168.8386840820312	43.81180953979492	405.6978759765625	-182.3064117431641	35.07483673095703	298.7489929199219	-373.5153198242188	35.53533554077148	362.4056701660156	-307.147705078125	490.6553649902344	572.925048828125	-289.1193237304688	781.8509521484375	590.9498901367188	-686.92333984375	189.8371276855469	552.6760864257812	-393.8011474609375	369.4313659667969	560.2996215820312	-543.650390625	34.12459945678711	500.9983825683594	-586.4300537109375	83.19707489013672	463.1272888183594	-607.4577026367188	85.44651031494141	564.41943359375	-722.4737548828125	233.5104827880859	497.7217102050781	-167.8599548339844	739.48876953125	154.4225463867188	
391	3.9	-444.8511352539062	1011.445739746094	473.5419311523438	-443.7269592285156	1017.269714355469	340.0523376464844	-440.9344482421875	1107.737548828125	404.6304931640625	-211.2698364257812	1293.946044921875	390.8198547363281	-452.6172790527344	1233.294067382812	403.9829711914062	-402.6947021484375	1506.782104492188	414.1480407714844	-230.0180969238281	1405.14111328125	392.6490783691406	-467.25146484375	1381.998901367188	506.2080688476562	-442.0764770507812	1454.075561523438	323.4356994628906	-346.6016235351562	1478.16357421875	236.9382629394531	-353.5799255371094	1353.454711914062	154.3553771972656	-313.9189147949219	1135.244750976562	124.4701690673828	-399.69970703125	1115.695068359375	175.5541839599609	-184.4668884277344	909.9708251953125	164.1065521240234	-227.3032531738281	881.358642578125	92.99417877197266	-279.4520568847656	1053.692504882812	115.7876815795898	-208.0014801025391	824.0224609375	99.22734832763672	-156.1310119628906	836.912841796875	141.5797882080078	-331.0235595703125	1467.032470703125	564.8614501953125	-344.8977966308594	1402.690307617188	633.7138671875	-356.9779968261719	1114.57666015625	681.2886962890625	-411.9420776367188	1097.35302734375	655.2991333007812	-223.5897521972656	894.3807983398438	642.4090576171875	-266.1304016113281	874.4826049804688	708.9716796875	-346.1947631835938	1059.037963867188	689.3124389648438	-209.7729949951172	721.408935546875	646.9041137695312	-193.0773620605469	803.787353515625	656.9850463867188	-246.8434753417969	799.421142578125	707.1531982421875	-318.6282653808594	1686.513793945312	477.3230895996094	-175.0633239746094	1709.137084960938	328.5968017578125	-179.6384429931641	1706.964477539062	472.7747192382812	-306.30908203125	1687.393188476562	311.99365234375	-317.1491088867188	940.80615234375	205.4087219238281	-321.7160034179688	935.32421875	591.9822998046875	-234.2596130371094	966.8473510742188	536.9833984375	-236.7319793701172	967.2532348632812	260.9036254882812	-250.5514678955078	498.9939880371094	282.0667724609375	-265.39794921875	663.0133666992188	238.1443176269531	-304.0669250488281	31.28689002990723	309.3716430664062	-294.9631652832031	250.3398132324219	290.6795349121094	-94.86487579345703	38.80020904541016	374.1226501464844	-168.8386993408203	43.68268203735352	405.9063110351562	-182.2970275878906	35.24031829833984	299.0341186523438	-373.5404052734375	35.39346694946289	362.2527465820312	-296.6918029785156	491.0060119628906	572.5322875976562	-282.6475524902344	782.3694458007812	590.28662109375	-677.8749389648438	192.0177764892578	552.3668823242188	-383.6591186523438	370.1583862304688	559.9393920898438	-533.2415161132812	35.74520111083984	504.3867492675781	-575.9927978515625	84.62928009033203	465.2540283203125	-597.9561157226562	88.39794921875	566.2267456054688	-713.3694458007812	234.7515869140625	496.6846008300781	-157.6388702392578	741.1930541992188	153.7714385986328	
392	3.91	-440.4765625	1011.423889160156	472.6722412109375	-439.0045471191406	1017.327331542969	339.1324768066406	-436.5429382324219	1107.86572265625	403.57275390625	-206.8651580810547	1294.269409179688	390.4237060546875	-448.2269897460938	1233.399047851562	402.8575744628906	-398.5790405273438	1506.932983398438	413.1118774414062	-225.7393798828125	1405.483642578125	392.2271118164062	-463.3204345703125	1382.11865234375	505.0041809082031	-437.5809326171875	1454.155639648438	322.2430725097656	-341.7903442382812	1478.335205078125	236.1153259277344	-347.9907836914062	1353.653930664062	153.5388793945312	-306.6971435546875	1135.772705078125	123.5262222290039	-392.7711486816406	1115.624389648438	173.8357238769531	-175.7619781494141	911.47412109375	163.7775115966797	-217.808837890625	882.70068359375	92.28115844726562	-271.560302734375	1054.514038085938	114.9775009155273	-198.1409301757812	825.4894409179688	98.55291748046875	-146.5977172851562	838.6759033203125	141.2050018310547	-327.3505554199219	1467.309448242188	564.0820922851562	-341.3135986328125	1402.911987304688	632.8819580078125	-352.8899841308594	1114.726806640625	680.1992797851562	-407.6486206054688	1097.339477539062	653.9885864257812	-218.6459503173828	894.97314453125	641.490478515625	-261.3336791992188	874.883544921875	707.9395751953125	-341.9130554199219	1059.220947265625	688.188232421875	-204.6598358154297	722.121826171875	645.5789184570312	-187.9383697509766	804.421142578125	656.103515625	-241.760498046875	799.8006591796875	706.1189575195312	-314.4351806640625	1686.68408203125	476.7415466308594	-171.0342102050781	1709.565307617188	327.9202880859375	-175.5025634765625	1707.357543945312	472.0909729003906	-302.2633666992188	1687.601318359375	311.4145812988281	-312.3677978515625	940.781982421875	204.7211456298828	-317.1533508300781	935.6875	591.404541015625	-229.8697357177734	967.4244384765625	536.2990112304688	-231.9657135009766	967.2797241210938	260.2658996582031	-248.241455078125	498.7641296386719	282.0303955078125	-261.8530578613281	662.8622436523438	238.1691741943359	-303.9994201660156	31.38863754272461	309.5750732421875	-293.9075317382812	250.2967071533203	290.7126770019531	-94.79988098144531	38.72643280029297	374.1943969726562	-168.8373718261719	43.56564712524414	406.1107177734375	-182.3132476806641	35.39654159545898	299.3336791992188	-373.6035461425781	35.23606491088867	362.0745239257812	-286.4975891113281	491.5211486816406	572.0757446289062	-276.2949829101562	782.9744262695312	589.6913452148438	-668.1785278320312	193.1112976074219	551.9349975585938	-373.5408630371094	370.9035949707031	559.5789184570312	-521.097412109375	37.68864822387695	508.0847473144531	-564.0418090820312	85.68720245361328	467.6082763671875	-586.9954223632812	91.05500030517578	568.3042602539062	-703.7677612304688	234.5242919921875	495.3863525390625	-147.52978515625	742.9552001953125	153.2604370117188	
